# xmcd CD database file generated by Grip 3.2.0
# 
# Track frame offsets:
#       225
#       15068
#       37381
#       56914
#       87461
#       110358
#       143615
#       156140
#       177449
#       193587
#       204023
#       219051
#       229174
#       251919
#       279518
#       304082
# 
# Disc length: 4277 seconds
# 
# Revision: 4
# Processed by: cddbd v1.5.2PL0 Copyright (c) Steve Scherf et al.
# Submitted via: Grip 3.2.0
# 
DISCID=da10b210
DTITLE=Funk Fest - Volume 3
DYEAR=1998
DGENRE=Funk
TTITLE0=Curtis Mayfield - Wild And Free
TTITLE1=The Whispers - And The Beat Goes On
TTITLE2=Midnight Star - Headlines
TTITLE3=Curtis Mayfield - Mighty Mighty (Spade And Whitey) (Live)
TTITLE4=Shalamar - Friends
TTITLE5=Calloway - I Wanna Be Rich
TTITLE6=Betty Wright - Clean Up Woman
TTITLE7=Curtis Mayfield - We Got To Have Peace
TTITLE8=Harold Melvin and The Blue Notes - I Love I Lost
TTITLE9=Aretha Franklin - Think
TTITLE10=Curtis Mayfield - Never Say You Can't Survive
TTITLE11=The Ohio Players - Find Someone To Love
TTITLE12=The Commodores - No Tricks
TTITLE13=Curtis Mayfield - Billy Jack
TTITLE14=T-Connection - At Midnight
TTITLE15=Curtis Mayfield - Give It Up
EXTD=YEAR: 1998
EXTT0=
EXTT1=
EXTT2=
EXTT3=
EXTT4=
EXTT5=
EXTT6=
EXTT7=
EXTT8=
EXTT9=
EXTT10=
EXTT11=
EXTT12=
EXTT13=
EXTT14=
EXTT15=
PLAYORDER=
